<?xml version="1.0" standalone="no"?>
<!DOCTYPE svg PUBLIC "-//W3C//DTD SVG 20010904//EN"
 "http://www.w3.org/TR/2001/REC-SVG-20010904/DTD/svg10.dtd">
<svg version="1.0" xmlns="http://www.w3.org/2000/svg"
 width="294.000000pt" height="294.000000pt" viewBox="0 0 294.000000 294.000000"
 preserveAspectRatio="xMidYMid meet">
<metadata>
Created by potrace 1.14, written by Peter Selinger 2001-2017
</metadata>
<g transform="translate(0.000000,294.000000) scale(0.100000,-0.100000)"
fill="#000000" stroke="none">
<path d="M1317 2919 c-355 -41 -667 -195 -912 -450 -381 -396 -503 -981 -314
-1500 145 -396 478 -729 872 -869 552 -196 1151 -62 1557 351 464 471 551
1194 212 1764 -287 483 -862 769 -1415 704z m367 -720 c141 -26 253 -112 316
-244 22 -45 40 -86 40 -91 0 -5 -66 -28 -147 -52 l-146 -44 -41 47 c-54 64
-84 75 -210 75 -115 0 -147 -8 -190 -48 -54 -51 -56 -65 -55 -394 0 -336 4
-359 58 -395 31 -21 45 -23 170 -23 110 0 143 3 170 18 39 19 70 72 78 132 l6
40 157 0 c86 0 159 -2 161 -5 3 -2 1 -40 -3 -82 -20 -190 -149 -333 -339 -378
-89 -21 -399 -21 -488 0 -184 44 -297 166 -321 346 -12 96 -12 612 0 708 25
192 169 344 364 386 75 16 341 19 420 4z"/>
</g>
</svg>
